<svg xmlns="http://www.w3.org/2000/svg" width="1440" height="196" viewBox="0 0 1440 196" fill="none">
  <path d="M98.8201 192L29.73 86.7895V192H0.540039V41.2195H34.98L100.71 141.18V41.2195H130.11V192H98.8201Z" fill="#FFFDF4"/>
  <path d="M225.166 195.15C214.246 195.15 204.096 193.19 194.716 189.27C185.476 185.35 177.356 179.89 170.356 172.89C163.356 165.75 157.896 157.42 153.976 147.9C150.056 138.24 148.096 127.74 148.096 116.4C148.096 105.06 150.056 94.6295 153.976 85.1095C157.896 75.5895 163.356 67.3295 170.356 60.3295C177.356 53.3295 185.476 47.8695 194.716 43.9495C204.096 40.0295 214.246 38.0695 225.166 38.0695C236.086 38.0695 246.236 40.0295 255.616 43.9495C264.996 47.8695 273.186 53.3295 280.186 60.3295C287.326 67.3295 292.856 75.5895 296.776 85.1095C300.696 94.6295 302.656 105.06 302.656 116.4C302.656 127.74 300.696 138.24 296.776 147.9C292.856 157.42 287.326 165.75 280.186 172.89C273.186 179.89 264.996 185.35 255.616 189.27C246.236 193.19 236.086 195.15 225.166 195.15ZM225.166 166.59C232.026 166.59 238.186 165.33 243.646 162.81C249.246 160.15 253.936 156.51 257.716 151.89C261.636 147.27 264.576 141.95 266.536 135.93C268.636 129.77 269.686 123.26 269.686 116.4C269.686 109.54 268.636 103.1 266.536 97.0795C264.576 91.0595 261.636 85.8095 257.716 81.3295C253.936 76.7095 249.246 73.1395 243.646 70.6195C238.186 67.9595 232.026 66.6295 225.166 66.6295C218.306 66.6295 212.146 67.9595 206.686 70.6195C201.226 73.1395 196.536 76.7095 192.616 81.3295C188.836 85.8095 185.896 91.0595 183.796 97.0795C181.836 103.1 180.856 109.54 180.856 116.4C180.856 123.26 181.836 129.77 183.796 135.93C185.896 141.95 188.836 147.27 192.616 151.89C196.536 156.51 201.226 160.15 206.686 162.81C212.146 165.33 218.306 166.59 225.166 166.59Z" fill="#FFFDF4"/>
  <path d="M421.9 164.28V192H320.47V41.2195H420.43V68.9395H352.39V100.65H414.13V128.16H352.39V164.28H421.9ZM386.83 32.3995H356.38L377.38 0.269531H411.19L386.83 32.3995Z" fill="#FFFDF4"/>
  <path d="M597.79 145.17C597.79 154.69 595.34 163.16 590.44 170.58C585.54 177.86 578.54 183.6 569.44 187.8C560.48 192 549.63 194.1 536.89 194.1C524.29 194.1 513.3 192 503.92 187.8C494.68 183.46 487.4 177.37 482.08 169.53C476.76 161.69 473.68 152.45 472.84 141.81H505.18C505.6 150.21 508.4 156.86 513.58 161.76C518.9 166.66 526.46 169.11 536.26 169.11C541.72 169.11 546.48 168.34 550.54 166.8C554.74 165.26 558.03 163.02 560.41 160.08C562.79 157.14 563.98 153.71 563.98 149.79C563.98 145.03 562.23 141.25 558.73 138.45C555.23 135.51 550.26 133.41 543.82 132.15L519.04 127.32C513.3 126.34 507.98 124.73 503.08 122.49C498.18 120.25 493.91 117.45 490.27 114.09C486.63 110.73 483.76 106.67 481.66 101.91C479.56 97.1495 478.51 91.6895 478.51 85.5295C478.51 76.5695 480.89 68.5895 485.65 61.5895C490.55 54.5895 497.2 49.1295 505.6 45.2095C514.14 41.2895 523.87 39.3295 534.79 39.3295C546.13 39.3295 556.21 41.4295 565.03 45.6295C573.85 49.8295 580.99 55.7795 586.45 63.4795C591.91 71.0395 594.92 80.0695 595.48 90.5695H563.14C562.86 85.2495 561.46 80.6295 558.94 76.7095C556.56 72.6495 553.34 69.5695 549.28 67.4695C545.22 65.2295 540.53 64.1095 535.21 64.1095C530.03 64.1095 525.62 65.0195 521.98 66.8395C518.48 68.5195 515.75 70.8295 513.79 73.7695C511.83 76.5695 510.85 79.7895 510.85 83.4295C510.85 86.7895 511.76 89.5895 513.58 91.8295C515.54 94.0695 518.06 95.8895 521.14 97.2895C524.22 98.5495 527.58 99.5295 531.22 100.23L557.05 105.48C570.35 108.14 580.43 112.69 587.29 119.13C594.29 125.43 597.79 134.11 597.79 145.17Z" fill="#FFFDF4"/>
  <path d="M679.806 195.15C669.306 195.15 659.436 193.19 650.196 189.27C640.956 185.21 632.906 179.61 626.046 172.47C619.186 165.19 613.796 156.79 609.876 147.27C606.096 137.75 604.206 127.46 604.206 116.4C604.206 105.34 606.096 95.1195 609.876 85.7395C613.796 76.2195 619.186 67.8895 626.046 60.7495C632.906 53.6095 640.956 48.0795 650.196 44.1595C659.436 40.0995 669.306 38.0695 679.806 38.0695C693.106 38.0695 705.146 40.7995 715.926 46.2595C726.846 51.7195 735.806 59.3495 742.806 69.1495C749.806 78.9495 754.146 90.2895 755.826 103.17H722.016C720.896 95.8895 718.306 89.5195 714.246 84.0595C710.326 78.5995 705.426 74.3295 699.546 71.2495C693.806 68.1695 687.366 66.6295 680.226 66.6295C673.646 66.6295 667.696 67.8195 662.376 70.1995C657.196 72.5795 652.646 76.0095 648.726 80.4895C644.946 84.9695 642.006 90.2895 639.906 96.4495C637.946 102.47 636.966 109.12 636.966 116.4C636.966 123.82 637.946 130.61 639.906 136.77C642.006 142.79 644.946 148.04 648.726 152.52C652.646 157 657.196 160.5 662.376 163.02C667.696 165.4 673.646 166.59 680.226 166.59C687.366 166.59 693.876 165.05 699.756 161.97C705.636 158.75 710.466 154.41 714.246 148.95C718.166 143.35 720.756 136.98 722.016 129.84H755.826C754.006 142.86 749.596 154.27 742.596 164.07C735.596 173.87 726.706 181.5 715.926 186.96C705.146 192.42 693.106 195.15 679.806 195.15Z" fill="#FFFDF4"/>
  <path d="M805.834 192H773.914V41.2195H805.834V100.65H871.144V41.2195H903.064V192H871.144V128.16H805.834V192Z" fill="#FFFDF4"/>
  <path d="M998.34 192L958.86 91.8295V192H929.88V41.2195H968.1L1011.78 152.94L1055.67 41.2195H1093.89V192H1064.91V90.9895L1025.01 192H998.34Z" fill="#FFFDF4"/>
  <path d="M1152.42 192H1120.5V41.2195H1152.42V192Z" fill="#FFFDF4"/>
  <path d="M1232.61 192H1179.06V41.2195H1232.61C1248.57 41.2195 1262.29 44.3695 1273.77 50.6695C1285.25 56.9695 1294.07 65.7195 1300.23 76.9195C1306.39 88.1195 1309.47 101.07 1309.47 115.77C1309.47 130.33 1306.32 143.42 1300.02 155.04C1293.72 166.52 1284.76 175.55 1273.14 182.13C1261.66 188.71 1248.15 192 1232.61 192ZM1210.98 68.7295V164.49H1230.93C1241.01 164.49 1249.41 162.6 1256.13 158.82C1262.99 155.04 1268.1 149.51 1271.46 142.23C1274.96 134.95 1276.71 126.13 1276.71 115.77C1276.71 105.69 1274.96 97.1495 1271.46 90.1495C1268.1 83.1495 1262.99 77.8295 1256.13 74.1895C1249.41 70.5495 1241.01 68.7295 1230.93 68.7295H1210.98Z" fill="#FFFDF4"/>
  <path d="M1391.36 192H1359.44V69.9895H1311.98V41.2195H1439.03V69.9895H1391.36V192Z" fill="#FFFDF4"/>
</svg>